<?xml version="1.0" encoding="UTF-8"?>
<svg id="Layer_1" data-name="Layer 1" xmlns="http://www.w3.org/2000/svg" xmlns:xlink="http://www.w3.org/1999/xlink" viewBox="0 0 1080 1080">
  <defs>
    <style>
      .cls-1, .cls-2 {
        fill: none;
      }

      .cls-1, .cls-3 {
        stroke-width: 0px;
      }

      .cls-4 {
        font-family: Inter-Medium, Inter;
        font-size: 69.13px;
        font-variation-settings: 'opsz' 14, 'wght' 500;
        font-weight: 500;
        letter-spacing: .34em;
      }

      .cls-4, .cls-3 {
        fill: #666ed3;
      }

      .cls-2 {
        stroke: #666ed3;
        stroke-linecap: round;
        stroke-miterlimit: 10;
        stroke-width: 3px;
      }

      .cls-5 {
        clip-path: url(#clippath);
      }
    </style>
    <clipPath id="clippath">
      <rect class="cls-1" x="0" width="1080" height="1080"/>
    </clipPath>
  </defs>
  <g class="cls-5">
    <g>
      <path class="cls-3" d="M288,420.78c-7.19,1.15-83.14,14.61-113.8,81.83-3.96,8.68-20.38,48.29-7.04,91.58,10.28,33.38,33.27,48.2,58.53,72.62,26.53,25.65,60.73,66.27,89.96,130.06,14.09.18,28.18.36,42.27.54-.72-124.82-1.45-249.64-2.17-374.46-13.19-.18-26.37-.36-39.56-.54.18,101.7.36,203.4.54,305.1-14.99-23.89-32.87-49.34-54.19-75.33-15.27-18.61-21.31-21.01-30.35-34.68-7.91-11.97-37.91-57.38-21.68-97.54,9.7-24,32.3-37.16,56.9-51.48,14.35-8.36,27.35-13.56,36.85-16.8-5.42-10.3-10.84-20.59-16.26-30.89Z"/>
      <path class="cls-3" d="M375.25,282.59c.18,97.75.35,195.5.53,293.24,3.1,12.15,11.56,37.68,34.19,48.94,6.83,3.4,13.36,4.7,32.48,5.72,38.59,2.06,57.9,3.13,74.24-1.08,12.04-3.1,55.97-14.43,68.28-47.69,2.77-7.49,2.52-12.24,2.17-33.06-.3-17.73-.63-44.58-.54-78.58-19.15,3.07-38.3,6.14-57.44,9.21v87.79c-1.04,2.07-5.61,10.61-15.72,14.09-5.47,1.88-10.31,1.51-13.01,1.08-22.11.7-44.21,1.4-66.32,2.1-2.11-.62-6.35-2.18-10.16-6.1-4.95-5.08-6.09-10.93-6.4-13.05-.74-68.38-1.47-136.76-2.21-205.14,16.08,19.69,32.15,39.38,48.23,59.07,2.19,5.38,9.84,25.99.54,46.06-1.59,3.43-5.65,12.1-14.63,18.97-11.91,9.1-24.59,8.98-26.62,16.93-.83,3.26.5,6.43,1.7,8.54,7.01-.49,18.69-2.2,31.43-8.67,4.46-2.27,15.06-7.78,24.39-18.97,1.71-2.05,21.69-26.75,16.26-56.9-2.31-12.84-8.27-21.34-19.51-35.77-24.54-31.5-37.28-39.23-56.9-66.66-5.87-8.21-14.55-21.46-22.9-39.7-7.36-.14-14.72-.27-22.08-.41Z"/>
      <path class="cls-3" d="M629.41,539.86c14.38-13.88,33.36-15.97,42.68-8.94,3.98,3,10.54,10.91,12.07,21.1.06.37.09.65.12.85.43,3.29,1.72,17.02-6.91,24.39-3.98,3.39-8.52,4.13-10.97,4.47-21.64,3.05-60.48,1.53-67.87,1.22-3.84,10.02-11.42,25.25-26.42,38.2-4.44,3.83-8.87,6.9-13.01,9.35,38.48-.14,76.95-.27,115.43-.41,5.11-.09,15.68-.99,26.42-7.72,6.18-3.88,10.38-8.4,13.01-11.79,2.94,3.2,7.46,7.4,13.82,10.97,8.76,4.93,16.96,6.41,21.95,6.91,55.95-.27,111.9-.54,167.86-.81.14-15.44.27-30.89.41-46.33-23.98.68-47.96,1.35-71.94,2.03-3.8-1.25-19.52-6.91-27.64-23.17-1.28-2.57-10.76-22.25-.81-36.58,4.43-6.38,10.78-8.93,15.85-10.97,14.04-5.65,27.1-2.5,32.11-1.22,5.81,1.48,10.36,3.62,13.41,5.28,5.69-9.21,11.38-18.42,17.07-27.64-3.72-4.86-16.44-20.22-39.02-25.61-23.32-5.56-41.9,3.15-48.77,6.5-22.19,10.82-32.27,28.84-35.36,34.55-3.2,5.92-15.71,29.05-8.13,56.09,2.76,9.82,7.3,17.09,10.57,21.54h-41.86c2.81-6.11,7.09-17.54,6.5-32.11-1.24-31.09-23.54-49.77-26.82-52.43-19.5-15.8-41.13-16.22-50.4-16.26-16.42-.07-29.28,4.49-36.58,7.72,1.08,16.93,2.17,33.87,3.25,50.8Z"/>
      <text class="cls-4" transform="translate(443.36 704.04) scale(1.05 1)"><tspan x="0" y="0">ADNAN</tspan></text>
      <line class="cls-2" x1="377.42" y1="722.13" x2="874.89" y2="722.13"/>
      <path class="cls-3" d="M523.73,425.93c6.91-9.35,13.82-18.7,20.73-28.04,10.16,8.13,20.32,16.26,30.48,24.39-7.72,9.75-15.44,19.51-23.17,29.26-9.35-8.54-18.7-17.07-28.04-25.61Z"/>
      <path class="cls-3" d="M239.09,572.92c9.35-10.16,18.7-20.32,28.04-30.48,9.75,9.75,19.51,19.51,29.26,29.26-9.75,11.38-19.51,22.76-29.26,34.14-9.35-10.97-18.7-21.95-28.04-32.92Z"/>
    </g>
  </g>
</svg>